<svg xmlns="http://www.w3.org/2000/svg" viewBox="0 0 512 512"><rect width="512" height="512" rx="110" fill="#111827"/><circle cx="256" cy="256" r="170" fill="#16a34a"/><path d="M206 132c0-28 22-50 50-50s50 22 50 50c0 16-7 30-19 39h35c43 0 78 35 78 78v121c0 42-34 76-76 76H188c-42 0-76-34-76-76V249c0-43 35-78 78-78h35c-12-9-19-23-19-39zm50-15c-8 0-15 7-15 15s7 15 15 15 15-7 15-15-7-15-15-15z" fill="#fff"/><text x="256" y="335" text-anchor="middle" font-family="Arial" font-size="104" font-weight="800" fill="#fff">60</text></svg>